<svg width="256" height="256" viewBox="0 0 256 256" fill="none" xmlns="http://www.w3.org/2000/svg">
<path d="M215 219.85C214.311 221.105 213.298 222.152 212.067 222.882C210.836 223.611 209.431 223.998 208 224H160C158.654 224 157.329 223.659 156.149 223.011C154.969 222.362 153.972 221.426 153.25 220.29L112.76 156.66L53.92 221.38C52.4856 222.921 50.5017 223.834 48.3984 223.922C46.2952 224.01 44.242 223.265 42.6841 221.849C41.1262 220.434 40.1891 218.461 40.076 216.359C39.963 214.257 40.683 212.195 42.08 210.62L103.85 142.62L41.25 44.3C40.479 43.0904 40.0474 41.6958 40.0004 40.2622C39.9534 38.8286 40.2927 37.4087 40.9828 36.1512C41.6728 34.8937 42.6883 33.8449 43.9229 33.1146C45.1574 32.3843 46.5656 31.9993 48 32H96C97.3464 32.0004 98.6709 32.3407 99.8509 32.9892C101.031 33.6377 102.028 34.5735 102.75 35.71L143.24 99.34L202.08 34.62C203.514 33.0792 205.498 32.1658 207.602 32.078C209.705 31.9901 211.758 32.7348 213.316 34.1506C214.874 35.5664 215.811 37.5391 215.924 39.6412C216.037 41.7433 215.317 43.8052 213.92 45.38L152.15 113.33L214.75 211.71C215.517 212.92 215.944 214.314 215.988 215.746C216.032 217.178 215.691 218.595 215 219.85Z" fill="white"/>
</svg>
